<svg width="150" height="150" viewBox="0 0 150 150" fill="none" xmlns="http://www.w3.org/2000/svg">
<g id="Frame">
<g id="SVGRepo_iconCarrier">
<path id="Vector" fill-rule="evenodd" clip-rule="evenodd" d="M121.875 75C121.875 100.888 100.888 121.875 75 121.875C49.1116 121.875 28.125 100.888 28.125 75C28.125 49.1116 49.1116 28.125 75 28.125C100.888 28.125 121.875 49.1116 121.875 75ZM131.25 75C131.25 106.066 106.066 131.25 75 131.25C43.934 131.25 18.75 106.066 18.75 75C18.75 43.934 43.934 18.75 75 18.75C106.066 18.75 131.25 43.934 131.25 75ZM58.5938 65.625C62.477 65.625 65.625 62.477 65.625 58.5938C65.625 54.7105 62.477 51.5625 58.5938 51.5625C54.7105 51.5625 51.5625 54.7105 51.5625 58.5938C51.5625 62.477 54.7105 65.625 58.5938 65.625ZM98.4375 58.5938C98.4375 62.477 95.2894 65.625 91.4062 65.625C87.5231 65.625 84.375 62.477 84.375 58.5938C84.375 54.7105 87.5231 51.5625 91.4062 51.5625C95.2894 51.5625 98.4375 54.7105 98.4375 58.5938ZM75 93.75C63.6144 93.75 56.25 86.5319 56.25 79.6875H46.875C46.875 93.5537 60.4971 103.125 75 103.125C89.5031 103.125 103.125 93.5537 103.125 79.6875H93.75C93.75 86.5319 86.3856 93.75 75 93.75Z" fill="#0061FF"/>
</g>
</g>
</svg>
