<svg width="30" height="30" viewBox="0 0 30 30" fill="none" xmlns="http://www.w3.org/2000/svg">
<g id="HomeIcon">
<g id="SVGRepo_iconCarrier">
<path id="Vector" fill-rule="evenodd" clip-rule="evenodd" d="M20.3125 4.6875V6.79941L22.8125 8.79941V4.6875H20.3125ZM24.6875 10.2994V4.375C24.6875 3.51205 23.988 2.8125 23.125 2.8125H20C19.1371 2.8125 18.4375 3.51205 18.4375 4.375V5.29941L17.9282 4.89202C16.2164 3.52245 13.7837 3.52245 12.0718 4.89202L1.91439 13.0179C1.51007 13.3414 1.44452 13.9314 1.76797 14.3356C2.09141 14.74 2.68137 14.8055 3.08569 14.4821L4.06254 13.7006V26.5625H2.50004C1.98226 26.5625 1.56254 26.9823 1.56254 27.5C1.56254 28.0177 1.98226 28.4375 2.50004 28.4375H27.5C28.0177 28.4375 28.4375 28.0177 28.4375 27.5C28.4375 26.9823 28.0177 26.5625 27.5 26.5625H25.9375V13.7006L26.9144 14.4821C27.3187 14.8055 27.9086 14.74 28.2321 14.3356C28.5555 13.9314 28.49 13.3414 28.0856 13.0179L24.6875 10.2994ZM24.0625 12.2006L16.757 6.35615C15.7297 5.53441 14.2702 5.53441 13.2431 6.35615L5.93754 12.2006V26.5625H10.3125V21.1882C10.3125 20.3573 10.3124 19.6411 10.3895 19.0677C10.4722 18.4531 10.6585 17.8641 11.1363 17.3863C11.6141 16.9085 12.2032 16.7221 12.8177 16.6395C13.3911 16.5624 14.1072 16.5625 14.9384 16.5625H15.0617C15.8929 16.5625 16.6089 16.5624 17.1824 16.6395C17.7969 16.7221 18.386 16.9085 18.8637 17.3863C19.3416 17.8641 19.5279 18.4531 19.6105 19.0677C19.6876 19.6411 19.6876 20.3573 19.6875 21.1882V26.5625H24.0625V12.2006ZM17.8125 26.5625V21.25C17.8125 20.3396 17.8105 19.7511 17.7522 19.3175C17.6976 18.9109 17.6094 18.7835 17.538 18.7121C17.4666 18.6407 17.3391 18.5525 16.9325 18.4977C16.4989 18.4395 15.9104 18.4375 15 18.4375C14.0896 18.4375 13.5011 18.4395 13.0676 18.4977C12.661 18.5525 12.5335 18.6407 12.4621 18.7121C12.3907 18.7835 12.3025 18.9109 12.2478 19.3175C12.1895 19.7511 12.1875 20.3396 12.1875 21.25V26.5625H17.8125ZM15 10.3125C14.1371 10.3125 13.4375 11.012 13.4375 11.875C13.4375 12.738 14.1371 13.4375 15 13.4375C15.863 13.4375 16.5625 12.738 16.5625 11.875C16.5625 11.012 15.863 10.3125 15 10.3125ZM11.5625 11.875C11.5625 9.97652 13.1015 8.4375 15 8.4375C16.8985 8.4375 18.4375 9.97652 18.4375 11.875C18.4375 13.7735 16.8985 15.3125 15 15.3125C13.1015 15.3125 11.5625 13.7735 11.5625 11.875Z" fill="white"/>
</g>
</g>
</svg>
