<svg width="30" height="30" viewBox="0 0 30 30" fill="none" xmlns="http://www.w3.org/2000/svg">
<g id="ServiciosIcon">
<g id="SVGRepo_iconCarrier">
<g id="Group">
<path id="Vector" d="M15 18.75C14.2583 18.75 13.5333 18.9699 12.9166 19.382C12.2999 19.794 11.8193 20.3797 11.5355 21.0649C11.2516 21.7502 11.1774 22.5042 11.3221 23.2316C11.4668 23.959 11.8239 24.6272 12.3484 25.1517C12.8728 25.6761 13.541 26.0333 14.2684 26.1779C14.9958 26.3226 15.7498 26.2484 16.4351 25.9645C17.1203 25.6807 17.706 25.2001 18.118 24.5834C18.5301 23.9667 18.75 23.2417 18.75 22.5C18.7493 21.5056 18.354 20.5522 17.6509 19.8491C16.9478 19.146 15.9944 18.7507 15 18.75Z" fill="white" stroke="white" stroke-width="0.00096"/>
<path id="Vector_2" d="M7.06403 14.5716C6.71341 14.9242 6.51719 15.4016 6.51856 15.8988C6.51993 16.396 6.71877 16.8724 7.07133 17.223C7.4239 17.5736 7.90131 17.7698 8.39854 17.7685C8.89577 17.7671 9.37209 17.5683 9.72272 17.2157C11.1358 15.8419 13.029 15.0734 14.9998 15.0734C16.9706 15.0734 18.8638 15.8419 20.2769 17.2157C20.4506 17.3916 20.6576 17.5312 20.8859 17.6261C21.1141 17.7211 21.359 17.7696 21.6063 17.7688C21.9766 17.7687 22.3386 17.659 22.6466 17.4534C22.9547 17.2479 23.1949 16.9557 23.3371 16.6137C23.4793 16.2718 23.5171 15.8954 23.4456 15.532C23.3741 15.1687 23.1967 14.8346 22.9356 14.5719C18.6802 10.2869 11.3194 10.2869 7.06403 14.5716Z" fill="white" stroke="white" stroke-width="0.00096"/>
<path id="Vector_3" d="M28.2093 9.30541C26.4882 7.54668 24.4333 6.14934 22.165 5.19537C19.8967 4.2414 17.4608 3.75 15.0001 3.75C12.5393 3.75 10.1034 4.2414 7.83511 5.19537C5.56683 6.14934 3.5119 7.54668 1.79085 9.30541C1.4412 9.65895 1.24631 10.1369 1.24905 10.6341C1.2518 11.1313 1.45195 11.6071 1.80549 11.9568C2.15902 12.3064 2.63697 12.5013 3.1342 12.4986C3.63143 12.4958 4.1072 12.2957 4.45685 11.9421C10.1185 6.2146 19.8817 6.2146 25.5433 11.9421C25.8929 12.2957 26.3687 12.4958 26.8659 12.4986C27.3632 12.5013 27.8411 12.3064 28.1946 11.9568C28.5482 11.6071 28.7483 11.1313 28.7511 10.6341C28.7538 10.1369 28.5589 9.65895 28.2093 9.30541Z" fill="white" stroke="white" stroke-width="0.00096"/>
</g>
</g>
</g>
</svg>
