<svg width="31" height="30" viewBox="0 0 31 30" fill="none" xmlns="http://www.w3.org/2000/svg">
<g id="ServiciosIcon">
<g id="SVGRepo_iconCarrier">
<g id="Group">
<path id="Vector" d="M15.3333 18.75C14.5916 18.75 13.8665 18.9699 13.2499 19.382C12.6332 19.794 12.1525 20.3797 11.8687 21.0649C11.5849 21.7502 11.5106 22.5042 11.6553 23.2316C11.8 23.959 12.1572 24.6272 12.6816 25.1517C13.2061 25.6761 13.8742 26.0333 14.6017 26.1779C15.3291 26.3226 16.0831 26.2484 16.7683 25.9645C17.4535 25.6807 18.0392 25.2001 18.4513 24.5834C18.8633 23.9667 19.0833 23.2417 19.0833 22.5C19.0826 21.5056 18.6873 20.5522 17.9842 19.8491C17.281 19.146 16.3276 18.7507 15.3333 18.75Z" fill="#0061FF" stroke="#0061FF" stroke-width="0.00096"/>
<path id="Vector_2" d="M7.39729 14.5715C7.04666 14.9241 6.85045 15.4015 6.85181 15.8987C6.85318 16.396 7.05202 16.8723 7.40458 17.2229C7.75715 17.5736 8.23456 17.7698 8.73179 17.7684C9.22902 17.767 9.70535 17.5682 10.056 17.2156C11.4691 15.8419 13.3622 15.0733 15.3331 15.0733C17.3039 15.0733 19.197 15.8419 20.6102 17.2156C20.7839 17.3916 20.9909 17.5311 21.2191 17.6261C21.4474 17.721 21.6923 17.7695 21.9395 17.7688C22.3098 17.7687 22.6718 17.6589 22.9799 17.4534C23.2879 17.2478 23.5282 16.9556 23.6704 16.6137C23.8126 16.2717 23.8503 15.8953 23.7788 15.532C23.7074 15.1686 23.5299 14.8345 23.2688 14.5719C19.0135 10.2869 11.6527 10.2869 7.39729 14.5715Z" fill="#0061FF" stroke="#0061FF" stroke-width="0.00096"/>
<path id="Vector_3" d="M28.5425 9.30541C26.8215 7.54668 24.7665 6.14934 22.4983 5.19537C20.23 4.2414 17.794 3.75 15.3333 3.75C12.8726 3.75 10.4366 4.2414 8.16837 5.19537C5.90009 6.14934 3.84515 7.54668 2.1241 9.30541C1.77445 9.65895 1.57956 10.1369 1.5823 10.6341C1.58505 11.1313 1.78521 11.6071 2.13874 11.9568C2.49227 12.3064 2.97022 12.5013 3.46745 12.4986C3.96468 12.4958 4.44045 12.2957 4.7901 11.9421C10.4517 6.2146 20.2149 6.2146 25.8765 11.9421C26.2262 12.2957 26.702 12.4958 27.1992 12.4986C27.6964 12.5013 28.1744 12.3064 28.5279 11.9568C28.8814 11.6071 29.0816 11.1313 29.0843 10.6341C29.0871 10.1369 28.8922 9.65895 28.5425 9.30541Z" fill="#0061FF" stroke="#0061FF" stroke-width="0.00096"/>
</g>
</g>
</g>
</svg>
