<svg width="30" height="30" viewBox="0 0 30 30" fill="none" xmlns="http://www.w3.org/2000/svg">
<g id="TechServiceIcon">
<g id="SVGRepo_iconCarrier">
<g id="Page-1">
<g id="support">
<path id="Vector" fill-rule="evenodd" clip-rule="evenodd" d="M24.7501 12.725C24.3626 8.75 22.0126 2.5 14.7501 2.5C7.48756 2.5 5.13756 8.75 4.75006 12.725C3.3907 13.2409 2.49404 14.546 2.50003 16V17.75C2.50003 19.683 4.06706 21.25 6.00006 21.25C7.93306 21.25 9.50006 19.683 9.50006 17.75V16C9.49377 14.5774 8.63005 13.2991 7.31256 12.7625C7.56256 10.4625 8.78756 5 14.7501 5C20.7126 5 21.9251 10.4625 22.1751 12.7625C20.8602 13.3003 20.0009 14.5794 20.0001 16V17.75C20.0055 19.0937 20.7771 20.3166 21.9876 20.9C21.4626 21.8875 20.1251 23.225 16.8376 23.625C16.1804 22.6271 14.909 22.2337 13.8031 22.6861C12.6972 23.1385 12.066 24.3102 12.2967 25.4825C12.5273 26.6549 13.5552 27.5 14.7501 27.5C15.6942 27.4948 16.5549 26.9581 16.9751 26.1125C22.3376 25.5 24.0501 22.7375 24.5876 21.1125C26.0417 20.6415 27.0197 19.2784 27.0001 17.75V16C27.0061 14.546 26.1094 13.2409 24.7501 12.725ZM7.00006 17.75C7.00006 18.3023 6.55234 18.75 6.00006 18.75C5.44777 18.75 5.00006 18.3023 5.00006 17.75V16C5.00006 15.6427 5.19066 15.3126 5.50006 15.134C5.80946 14.9553 6.19066 14.9553 6.50006 15.134C6.80946 15.3126 7.00006 15.6427 7.00006 16V17.75ZM22.5001 16C22.5001 15.4477 22.9478 15 23.5001 15C24.0523 15 24.5001 15.4477 24.5001 16V17.75C24.5001 18.3023 24.0523 18.75 23.5001 18.75C22.9478 18.75 22.5001 18.3023 22.5001 17.75V16Z" fill="#0061FF"/>
</g>
</g>
</g>
</g>
</svg>
