<svg width="30" height="30" viewBox="0 0 30 30" fill="none" xmlns="http://www.w3.org/2000/svg">
<g id="TransactionsIcon">
<g id="SVGRepo_iconCarrier">
<path id="Vector" d="M10 6.25006C8.76456 6.25103 8.11699 6.26672 7.61503 6.52249C7.14461 6.76216 6.76216 7.14461 6.52249 7.61503C6.25 8.1498 6.25 8.84986 6.25 10.25V22.25C6.25 23.6501 6.25 24.3503 6.52249 24.885C6.76216 25.3554 7.14461 25.7379 7.61503 25.9775C8.1498 26.25 8.84986 26.25 10.25 26.25H19.75C21.1501 26.25 21.8503 26.25 22.385 25.9775C22.8554 25.7379 23.2379 25.3554 23.4775 24.885C23.75 24.3503 23.75 23.6501 23.75 22.25V10.25C23.75 8.84986 23.75 8.1498 23.4775 7.61503C23.2379 7.14461 22.8554 6.76216 22.385 6.52249C21.883 6.26672 21.2355 6.25103 20 6.25006M10 6.25006V8.75H20V6.25006M10 6.25006V5.88389C10 5.31794 10.2248 4.77518 10.625 4.375C11.0252 3.97482 11.5679 3.75 12.1339 3.75H17.8661C18.432 3.75 18.9749 3.97482 19.375 4.375C19.7751 4.77518 20 5.31794 20 5.88389V6.25006M15 13.75H11.25M18.75 18.75H11.25" stroke="white" stroke-width="2" stroke-linecap="round" stroke-linejoin="round"/>
</g>
</g>
</svg>
