<svg width="31" height="30" viewBox="0 0 31 30" fill="none" xmlns="http://www.w3.org/2000/svg">
<g id="TransactionsIcon">
<g id="SVGRepo_iconCarrier">
<path id="Vector" d="M10.6667 6.25006C9.43131 6.25103 8.78374 6.26672 8.28177 6.52249C7.81136 6.76216 7.42891 7.14461 7.18924 7.61503C6.91675 8.1498 6.91675 8.84986 6.91675 10.25V22.25C6.91675 23.6501 6.91675 24.3503 7.18924 24.885C7.42891 25.3554 7.81136 25.7379 8.28177 25.9775C8.81655 26.25 9.51661 26.25 10.9167 26.25H20.4167C21.8169 26.25 22.517 26.25 23.0517 25.9775C23.5221 25.7379 23.9046 25.3554 24.1442 24.885C24.4167 24.3503 24.4167 23.6501 24.4167 22.25V10.25C24.4167 8.84986 24.4167 8.1498 24.1442 7.61503C23.9046 7.14461 23.5221 6.76216 23.0517 6.52249C22.5497 6.26672 21.9022 6.25103 20.6667 6.25006M10.6667 6.25006V8.75H20.6667V6.25006M10.6667 6.25006V5.88389C10.6667 5.31794 10.8916 4.77518 11.2917 4.375C11.6919 3.97482 12.2347 3.75 12.8006 3.75H18.5329C19.0987 3.75 19.6416 3.97482 20.0417 4.375C20.4419 4.77518 20.6667 5.31794 20.6667 5.88389V6.25006M15.6667 13.75H11.9167M19.4167 18.75H11.9167" stroke="#0061FF" stroke-width="2" stroke-linecap="round" stroke-linejoin="round"/>
</g>
</g>
</svg>
